<?xml version="1.0" encoding="UTF-8"?>
<svg width="40" height="40" version="1.1" viewBox="0 0 10.5833 10.5833"
     xmlns="http://www.w3.org/2000/svg">
    <path d="m7.16548 5.13034v-0.60042c2.80594 1.28286 2.12475 2.68009 0 4.10742v-0.60042c1.46184-0.928249 1.77436-2.18575 0-2.90658z"
          style="fill:#ffffff"/>
    <g transform="matrix(.825202 0 0 .825202 -.277531 2.57484)">
        <path d="m6.15695 0.62043c-0.959091 0.00714461-1.91823 0.192128-2.87734 0.532267v0.498678h-0.228927v6.87245c1.03535-0.424895 2.07081-0.622145 3.10627-0.614433 1.03546-0.00771 2.07092 0.189538 3.10627 0.614433v-6.87245h-0.228927v-0.498678c-0.959117-0.340139-1.91825-0.525122-2.87734-0.532267z"
              style="fill:#e3e3e3;stroke-width:0"/>
        <path d="m3.18349 1.17957c-0.072454 0.092655-0.114635 0.207644-0.132808 0.355017v6.8833c1.03536 0.394045 2.07094 0.60672 3.10627 0.614433 1.03533-0.0077123 2.07091-0.220388 3.10627-0.614433v-6.8833c-0.018173-0.147373-0.060354-0.262362-0.132809-0.355017-0.983994 0.330802-1.98224 0.505992-2.97346 0.498677-0.991149 0.0078876-1.97311-0.174894-2.97346-0.498677z"
              style="fill:#ffffff;stroke-width:0"/>
        <g transform="translate(.865285 .514494)" style="fill:#f8f8f8">
            <path transform="scale(.264583)"
                  d="m20 0.390625c-3.44845-0.0484449-7.00363 0.816487-9.87305 1.41797v0.013672l-0.005859-0.0097658c-0.866356 0.126705-1.04732 0.424662-1.35352 0.691406v0.068359c2.99414 0.95021 6.57866 2.04875 11.2324 2.08594v-0.658203c-4.03908-0.0963602-10.3711-1.00422-10.3711-1.62109 0-0.320255 7.36422-1.43474 10.3711-1.37891z"
                  style="fill:#f8f8f8"/>
            <path d="m5.29167 0.105937c0.912402-0.0128177 1.85304 0.216029 2.61224 0.375171v0.003617l0.00155-0.002584c0.229224 0.0335247 0.277102 0.112359 0.358118 0.182935v0.0180868c-0.7922 0.251409-1.7406 0.542064-2.97191 0.551904v-0.176733c1.06867-0.025495 2.74402-0.263117 2.74402-0.426331 0-0.0847342-1.94845-0.382191-2.74402-0.367419z"
                  style="fill:#f8f8f8"/>
        </g>
    </g>
    <path d="m2.14272 5.93659c0.469278 0.199656 4.79957 0.212626 5.32474 0" style="fill:none"/>
    <g transform="matrix(.825202 0 0 .825202 .802423 2.40115)"
       style="fill:#5f99af;stroke-width:.264583" aria-label="JML">
        <g style="stroke-width:.0848329" aria-label="JML">
            <path d="m3.48547 5.45806q-0.0166347 0.185434-0.0642835 0.312286-0.0476488 0.126853-0.135111 0.199915-0.0874624 0.0730622-0.22077 0.0973727-0.130789 0.0273264-0.316222 0.0106917-0.174363-0.0156416-0.292664-0.0653133-0.115534-0.0494233-0.182812-0.139157-0.0645109-0.0894852-0.0860537-0.222545-0.0187752-0.132811-0.002637-0.31271l0.00745-0.08303 0.489877 0.043946-0.00521 0.058121q-0.016635 0.185434 0.0026 0.282017 0.019235 0.096583 0.121639 0.10577 0.058121 0.00521 0.091296-0.022499 0.035943-0.027465 0.05425-0.076042 0.021323-0.051096 0.027034-0.114752 0.00848-0.063408 0.014437-0.129832l0.121657-1.35616 0.49818 0.04469z"
                  style="stroke-width:.0848329"/>
            <path d="m5.53086 6.15437-0.00469-1.68393-0.339874 1.68489-0.544633 0.00152-0.346505-1.6941 0.00472 1.69505-0.422368 0.00118-0.00559-2.00905 0.79194-0.00221 0.259714 1.46092 0.265468-1.46238 0.794719-0.00221 0.00559 2.00905z"
                  style="stroke-width:.0848324"/>
            <path d="m6.40954 6.06881-0.162664-2.00246 0.498538-0.0404972 0.13544 1.66733 0.617634-0.0501715 0.0272231 0.335128z"
                  style="stroke-width:.0848329"/>
        </g>
    </g>
    <path d="m-5.06016 3.85299c4.77904 0 4.77904 0.033073 4.77904 0.033073" style="fill:none"/>
    <g transform="matrix(.410014 0 0 .442545 2.16463 3.33143)"
       style="fill-opacity:.389558;fill:#d6d6d6">
        <path d="m4.35289-5.49316c-0.02125-0.00732-0.042159-0.021886-0.063752-0.021948-0.181315-5.235e-4 -0.339001 0.04294-0.494544 0.23231-0.046368 0.056451-0.091354 0.120494-0.127913 0.198931-0.038287 0.082144-0.062588 0.184622-0.093883 0.276933-0.00792 0.125427-0.031126 0.250725-0.023786 0.376283 0.018625 0.318563 0.130396 0.599294 0.24401 0.814085 0.163068 0.308283 0.409887 0.60523 0.608132 0.808608 0.111742 0.114635 0.229721 0.205579 0.344581 0.308368 0.157647 0.137556 0.322574 0.23998 0.482953 0.364297 0.029156 0.022601 0.05637 0.054023 0.085922 0.074674 0.00676 0.00472-0.00962-0.023305-0.01665-0.026264-0.019635-0.00827-0.041082-0.017783-0.060237-0.00611-0.048889 0.02979-0.092502 0.084907-0.138752 0.12736-0.58047 0.446719-1.175 0.863552-1.6956 1.5412-0.07321 0.0952949-0.139984 0.20747-0.209976 0.311205-0.037788 0.0810083-0.082888 0.151472-0.113363 0.243025-0.06049 0.181721-0.055238 0.370025 0.00607 0.560768 0.045195 0.140631 0.210921 0.3239 0.288061 0.264023 0.073395-0.0569702 0.101036-0.234522 0.159909-0.335754 0.160612-0.14012 0.290604-0.410781 0.502247-0.605081 0.334027-0.307851 0.448892-0.436628 0.768103-0.796401 0.105087-0.11844 0.2115-0.233135 0.313198-0.361908 0.082003-0.103843 0.158216-0.223462 0.237326-0.33519 0.106324-0.199816 0.211203-0.330903 0.237807-0.637453 0.0491186-0.565973-0.370742-0.925699-0.563757-1.13556-0.436076-0.398333-0.215868-0.202129-0.66069-0.588348-0.0903522-0.0814823-0.180473-0.164177-0.268738-0.253613-0.0756514-0.0766555-0.176864-0.160754-0.225544-0.314602-0.00979-0.030945-0.00898-0.070249-0.013459-0.105373 0.015377-0.04312 0.026582-0.092923 0.046135-0.129361 0.044664-0.083232 0.139529-0.181785 0.194879-0.227673 0.034691-0.02876 0.073409-0.0388 0.107042-0.071821 0.00716-0.00703 0.00625-0.028311 0.00937-0.042466 0.023219-0.00732 0.046438-0.014632 0.069655-0.021949 0.017969 0.00881 0.083218-0.476391 0.065249-0.4852z"
              style="fill-opacity:.389558;fill:#d6d6d6"/>
        <path d="m5.98259-5.82139c-0.041769 0.00748-0.084168 0.012036-0.125308 0.022431-0.202318 0.05113-0.412288 0.148507-0.541723 0.318639-0.031159 0.040955-0.051127 0.089324-0.07669 0.133986-0.032432 0.138104-0.06293 0.185786-0.010713 0.332488 0.085967 0.241526 0.31805 0.42468 0.50439 0.583059 0.109121 0.092747 0.220246 0.183108 0.330369 0.274662 0.299491 0.218241 0.501028 0.349794 0.770104 0.608093 0.194946 0.187137 0.434113 0.430804 0.499865 0.710725 0.086686 0.36904-0.065232 0.588364-0.193699 0.928262-0.325089 0.636636-0.74675 1.21441-1.20528 1.76025-0.163034 0.194481-0.324806 0.402497-0.540551 0.536128 0 0-0.504923 0.0817487 0.057393 0.578909 0.098877-0.0164013 0.202539-0.0146736 0.296631-0.0492046 0.329648-0.120976 0.642197-0.364781 0.884065-0.607193 0.381434-0.382293 0.699179-0.824677 0.946446-1.30454 0.123576-0.239819 0.208069-0.49784 0.312103-0.74676 0.107074-0.566887 0.221086-0.785866 0.066247-1.34606-0.152482-0.551664-0.595792-0.960423-1.04549-1.27616-0.134208-0.0942283-0.280244-0.170371-0.420365-0.255557-0.210795-0.110268-0.41372-0.210129-0.61524-0.33396-0.053982-0.033171-0.103855-0.072699-0.157523-0.106375-0.025807-0.016193-0.054237-0.027821-0.08062-0.043057-0.00947-0.00547-0.022505-0.0089-0.026786-0.018969-0.00454-0.010673 0.00268-0.023041 0.00402-0.034561 0.012089-0.01562 0.021947-0.033252 0.036262-0.04686 0.128479-0.122134 0.306022-0.174312 0.456166-0.262037 0.025196-0.00877-0.098874-0.365119-0.124071-0.356346z"
              style="fill-opacity:.389558;fill:#d6d6d6"/>
        <path d="m9.22526-6.9134c-0.111282-0.016857-0.147871-0.028262-0.291128 0.00955-0.05105 0.013475-0.09835 0.041774-0.139784 0.074499-0.125368 0.099017-0.19099 0.224192-0.231199 0.380204-0.024495 0.095043-0.022765 0.194972-0.034146 0.292458 0.01783 0.123407 0.020635 0.249939 0.053488 0.370221 0.120039 0.439496 0.395411 0.821382 0.732314 1.12091 0.268366 0.238597 0.436189 0.315569 0.740718 0.49108 0.07923 0.048645 0.451331 0.261967 0.529182 0.360137 0.04849 0.061142 0.07199 0.140822 0.08669 0.217459 0.04655 0.242674 8.47e-4 0.45419-0.08882 0.684099-0.05843 0.149792-0.144229 0.287406-0.216344 0.43111-0.116469 0.148593-0.217138 0.31106-0.349418 0.44577-0.171423 0.174571-0.368916 0.32155-0.557326 0.477636-0.197848 0.163905-0.399039 0.323772-0.601292 0.482208-0.41012 0.321271-0.714113 0.532122-1.10589 0.864759-0.128875 0.109421-0.249818 0.227856-0.374727 0.341784-0.095008 0.114944-0.275293 0.280176-0.298854 0.454505-0.010327 0.076399-0.021148 0.16613 0.02163 0.230267 0.0513 0.076914 0.155105 0.100658 0.232658 0.150987 0.2165-0.045311 0.398078-0.249491 0.528957-0.353553 0.337542-0.201572 0.685529-0.403235 1.00854-0.626664 0.217837-0.150681 0.432594-0.306292 0.639426-0.471756 0.218482-0.174784 0.438696-0.349464 0.635593-0.548248 0.500246-0.505038 0.544518-0.647848 0.889807-1.21991 0.06551-0.19052 0.153369-0.37477 0.196539-0.571559 0.101182-0.461235 0.05259-0.954956-0.221535-1.34937-0.146436-0.210692-0.357429-0.328289-0.562066-0.470543-0.245471-0.145393-0.410689-0.231615-0.634798-0.412209-0.284832-0.229527-0.524417-0.504323-0.682351-0.836186-0.03775-0.079323-0.060695-0.164879-0.091043-0.247319-0.00269-0.032152-0.026909-0.250177-0.015404-0.312364 0.00344-0.018605 0.016375-0.034868 0.029506-0.048491 0.010713-0.011115 0.039795-0.00808 0.039898-0.023516 9.16e-5 -0.013792-0.051465-0.00465-0.039664-0.011786 0.022191-0.013424 0.051363-0.00722 0.077044-0.010829 0.025834 0.00663 0.119639-0.358713 0.093805-0.365346z"
              style="fill-opacity:.389558;fill:#d6d6d6"/>
    </g>
</svg>
